# xmcd CD database file
#
# Track frame offsets:
#	150
#	13105
#	24010
#	37495
#	48845
#	62650
#	74002
#	84047
#	94610
#	106935
#
# Disc length: 1596 seconds
#
# Revision: 0
# Processed by: cddbd v1.4PL0 Copyright (c) Steve Scherf et al.
# Submitted via: CDex 1.40Release
#
DISCID=76063a0a
DTITLE=Willie Nelson - The Best Of Willie Nelson
DYEAR=1999
DGENRE=Country
TTITLE0=Crazy
TTITLE1=Hello Walls
TTITLE2=Three Days
TTITLE3=Night Life
TTITLE4=Funny How Time Slips Away
TTITLE5=Opportunity To Cry
TTITLE6=Touch Me
TTITLE7=The Part Where I Cry
TTITLE8=Willingly
TTITLE9=Wake Me When It's Over
EXTD=YEAR: 1999 ID3G: 2
EXTT0=
EXTT1=
EXTT2=
EXTT3=
EXTT4=
EXTT5=
EXTT6=
EXTT7=
EXTT8=
EXTT9=
PLAYORDER=
